<svg xmlns="http://www.w3.org/2000/svg" xmlns:xlink="http://www.w3.org/1999/xlink" xmlns:serif="http://www.serif.com/" version="1.1" xml:space="preserve" style="fill-rule:evenodd;clip-rule:evenodd;stroke-linejoin:round;stroke-miterlimit:2;" viewBox="0 0 4972.65 968.57"><g><clipPath id="_clip1"><rect x="0" y="0" width="4971.98" height="968.571"/></clipPath><g clip-path="url(#_clip1)"><g><path d="M1029,792.111l0,-622.222l232.889,-0c50.667,-0 92.445,8.889 125.334,25.777c32.889,16.889 57.777,40 73.777,69.334c16,29.333 24,62.222 24,99.555c0,33.778 -7.111,65.778 -23.111,95.112c-16,29.333 -40,53.333 -72.889,71.111c-32.889,17.777 -75.555,26.666 -127.111,26.666l-112.889,0l0,234.667l-120,-0Zm120,-331.556l105.778,0c38.222,0 65.778,-8.888 82.667,-25.777c16.889,-17.778 25.778,-40.889 25.778,-70.223c-0,-30.222 -8.889,-54.222 -25.778,-71.111c-16.889,-17.778 -44.445,-25.778 -82.667,-25.778l-105.778,0l0,192.889Z" style="fill:#ffffff;fill-rule:nonzero;"/></g><g><path d="M1398.78,792.111l227.555,-622.222l136,-0l226.667,622.222l-127.111,0l-168,-485.333l-168.889,485.333l-126.222,0Zm100.444,-141.333l32,-93.334l316.445,0l31.111,93.334l-379.556,-0Z" style="fill:#ffffff;fill-rule:nonzero;"/></g><g><path d="M2077.89,792.111l-163.556,-622.222l128,-0l108.445,486.222l128,-486.222l132.444,-0l124.445,486.222l109.333,-486.222l128.889,-0l-168,622.222l-143.111,-0l-119.111,-453.333l-123.556,453.333l-142.222,-0Z" style="fill:#ffffff;fill-rule:nonzero;"/></g><g><path d="M3238.76,791.982c-59.701,0 -110.873,-12.793 -153.517,-39.232c-43.496,-25.586 -75.905,-61.406 -99.785,-108.314c-23.028,-46.055 -34.115,-99.786 -34.115,-160.339c-0,-60.554 11.087,-115.138 34.115,-161.193c23.88,-46.907 56.289,-82.728 99.785,-109.167c42.644,-26.439 93.816,-39.232 153.517,-39.232c72.494,0 131.342,17.911 177.397,53.731c46.055,35.821 75.052,86.993 86.139,151.811l-125.371,-0c-7.676,-31.556 -23.028,-56.29 -46.055,-74.2c-23.881,-17.91 -54.584,-27.292 -92.963,-27.292c-34.968,0 -65.671,8.529 -91.257,24.733c-25.586,17.058 -44.349,40.938 -57.995,70.789c-13.646,30.703 -20.469,67.376 -20.469,110.02c0,42.643 6.823,78.464 20.469,109.167c13.646,30.703 32.409,53.731 57.995,70.788c25.586,16.205 56.289,24.733 91.257,24.733c38.379,0 69.082,-8.528 92.11,-25.586c23.88,-16.204 39.232,-39.232 46.055,-69.935l126.224,-0c-11.087,62.259 -40.084,110.873 -86.139,145.841c-46.055,34.967 -104.903,52.877 -177.397,52.877Z" style="fill:#ffffff;fill-rule:nonzero;"/></g><g><path d="M3521.92,781.748l0,-614.066l115.138,0l-0,248.185c13.646,-22.174 33.262,-40.085 57.142,-53.731c23.027,-13.645 51.172,-19.616 81.875,-19.616c35.821,0 65.671,6.823 90.404,22.175c24.734,14.499 42.644,35.821 55.437,64.818c12.793,28.998 18.763,63.965 18.763,105.756l0,246.479l-114.284,0l-0,-236.245c-0,-34.114 -6.823,-60.553 -21.322,-78.464c-14.499,-18.763 -36.674,-28.144 -67.377,-28.144c-18.763,-0 -35.82,4.264 -51.172,13.646c-15.352,9.381 -27.292,22.174 -36.673,39.232c-8.529,17.057 -12.793,38.379 -12.793,62.259l-0,227.716l-115.138,0Z" style="fill:#ffffff;fill-rule:nonzero;"/></g><g><path d="M4118.07,791.982c-35.82,0 -64.818,-5.97 -88.698,-17.057c-23.028,-11.94 -40.085,-28.145 -52.025,-47.761c-11.088,-19.616 -16.205,-40.937 -16.205,-64.818c0,-26.439 5.97,-49.466 19.616,-69.082c13.646,-19.616 34.115,-35.821 61.407,-46.908c26.439,-11.087 60.553,-17.057 101.491,-17.057l106.609,-0c-0,-21.322 -3.412,-38.379 -8.529,-52.025c-5.117,-13.646 -14.499,-24.733 -26.439,-31.556c-11.94,-6.823 -28.145,-10.235 -47.761,-10.235c-21.321,0 -39.231,5.117 -54.583,14.499c-15.352,9.382 -24.733,23.88 -28.145,42.643l-111.726,0c3.412,-30.703 12.793,-57.142 30.704,-80.169c17.057,-22.175 40.084,-39.232 68.229,-52.025c28.998,-11.94 60.554,-17.911 96.374,-17.911c40.085,0 75.906,5.971 104.903,19.616c29.851,13.646 52.025,33.262 68.23,58.848c15.351,25.586 23.88,57.143 23.88,94.669l0,266.095l-97.227,0l-12.793,-65.671c-5.97,11.087 -13.646,21.322 -22.175,30.703c-8.528,9.382 -18.763,17.058 -29.85,23.881c-11.087,6.823 -23.88,11.94 -38.379,15.351c-13.646,4.265 -29.851,5.97 -46.908,5.97Zm27.292,-88.698c14.499,0 28.145,-3.411 40.085,-8.529c11.087,-5.117 21.321,-12.793 29.85,-22.174c8.529,-9.382 15.352,-19.616 20.469,-32.409c4.264,-11.94 7.676,-25.586 9.382,-39.232l-0,-0.853l-87.846,-0c-17.057,-0 -31.556,1.706 -42.643,6.823c-11.088,4.264 -19.616,10.234 -24.734,17.91c-5.117,8.529 -7.675,17.057 -7.675,27.292c-0,11.087 2.558,20.469 7.675,28.145c5.118,7.675 12.793,12.793 22.175,17.057c9.382,3.411 20.469,5.97 33.262,5.97Z" style="fill:#ffffff;fill-rule:nonzero;"/></g><g><path d="M4399.52,781.748l-0,-429.846l115.137,0l0,429.846l-115.137,0Zm57.995,-488.694c-20.469,0 -37.526,-5.97 -51.172,-18.763c-12.793,-11.94 -19.616,-27.292 -19.616,-46.055c-0,-18.763 6.823,-34.115 19.616,-46.908c13.646,-11.94 30.703,-17.91 51.172,-17.91c21.322,-0 38.379,5.97 52.025,17.91c12.793,12.793 19.616,28.145 19.616,46.908c0,18.763 -6.823,34.115 -19.616,46.055c-13.646,12.793 -30.703,18.763 -52.025,18.763Z" style="fill:#ffffff;fill-rule:nonzero;"/></g><g><path d="M4554.74,781.748l0,-429.846l101.492,0l8.528,69.935c12.793,-23.88 31.557,-43.496 55.437,-57.995c24.733,-14.499 53.731,-21.322 86.993,-21.322c35.82,0 65.67,6.823 90.404,21.322c23.88,15.352 42.643,36.674 55.436,64.818c13.646,28.998 19.616,63.965 19.616,104.903l0,248.185l-114.284,0l-0,-237.098c-0,-34.114 -7.676,-59.7 -22.175,-78.464c-14.499,-17.91 -36.673,-27.291 -66.524,-27.291c-19.616,-0 -36.673,4.264 -51.172,13.646c-15.351,9.381 -27.292,22.174 -35.82,38.379c-8.529,17.057 -12.793,37.526 -12.793,61.406l-0,229.422l-115.138,-0Z" style="fill:#ffffff;fill-rule:nonzero;"/></g><g><path d="M390.771,951.977l0,-444.608c0,0 1.412,-27.188 11.641,-44.366c7.782,-13.07 29.753,-24.71 29.753,-24.71l153.271,-89.296l-131.445,-76.355c0,0 -14.013,-8.445 -28,-8.445c-13.853,0 -27.686,8.445 -27.686,8.445l-133.444,76.355c0,0 -18.631,9.3 -27.511,29.206c-8.736,19.584 -6.737,46.613 -6.737,46.613l0,403.224c0,0 1.129,15.462 8.983,27.519c8.408,12.906 23.581,22.463 23.581,22.463l127.594,73.955Zm106.008,-205.551l151.767,-86.306c0,0 22.209,-11.75 33.46,-31.448c10.201,-17.866 9.543,-43.857 9.543,-43.857l0,-206.563c0,0 0.655,-25.994 -9.543,-43.857c-11.251,-19.7 -33.46,-31.451 -33.46,-31.451l-194.55,-110.634c0,0 -10.768,-5.616 -28.001,-5.616c-16.285,0 -28,5.616 -28,5.616l-194.552,110.634c0,0 -22.209,11.75 -33.458,31.451c-10.202,17.863 -9.545,43.857 -9.545,43.857l0.303,441.609l-114.834,-65.954c0,0 -24.947,-12.197 -36.493,-32.571c-10.263,-18.111 -8.421,-42.682 -8.421,-42.682l0,-394.241c0,0 -1.84,-24.57 8.421,-42.68c11.546,-20.376 36.493,-32.573 36.493,-32.573l352.016,-202.174c0,0 14.039,-6.178 28.07,-6.178c14.038,0 28.071,6.178 28.071,6.178l352.016,202.174c0,0 24.947,12.197 36.492,32.573c10.263,18.11 8.423,42.68 8.423,42.68l0,394.241c0,0 1.84,24.571 -8.423,42.682c-11.545,20.374 -36.492,32.571 -36.492,32.571l-344.635,197.937l-0.085,-140.652c0,0 -1.062,-20.803 5.054,-35.941c6.958,-17.229 30.363,-28.825 30.363,-28.825Z" style="fill:#ffffff;fill-rule:nonzero;"/><path d="M461.472,685.954l125.087,-71.884c-0,-0 15.081,-9.271 24.142,-23.588c8.326,-13.154 10.694,-31.451 10.694,-31.451l-0,-102.768c-0,-0 -0.238,-19.817 -10.694,-27.519c-9.114,-6.713 -25.825,2.246 -25.825,2.246l-99.374,58.408c-0.007,-0.012 -11.677,6.805 -17.964,21.34c-5.613,12.973 -6.067,33.695 -6.067,33.695l-0,141.521l0.001,-0Z" style="fill:#ffffff;fill-rule:nonzero;"/></g></g></g></svg>