<svg width="48" height="48" viewBox="0 0 48 48" fill="none" xmlns="http://www.w3.org/2000/svg">
<path d="M42.4057 24V23.9666V23.9331C42.3722 13.509 33.9636 5 23.7036 5C13.3934 5 5 13.509 5 24C5 34.4576 13.3934 43 23.7021 43C28.4612 43 32.9376 41.1988 36.4078 37.911C37.1009 37.2498 37.151 36.1767 36.4746 35.4821C35.8469 34.7874 34.7722 34.7388 34.0791 35.3666C34.0791 35.3666 34.0791 35.3666 34.0457 35.4C31.2534 38.0433 27.4869 39.5633 23.62 39.5633C19.0934 39.5633 15.0457 37.5812 12.2367 34.409L20.2334 21.6045V27.5355C20.2334 30.3779 21.34 31.2854 22.2657 31.5498C23.1914 31.8143 24.5791 31.6152 26.0991 29.2364L30.4767 22.1319C30.6257 21.9176 30.7412 21.6866 30.8902 21.5376V25.14C30.8902 27.7833 31.9648 29.931 33.7979 30.9555C35.4502 31.9146 37.5478 31.7976 39.2836 30.7412C41.4146 29.3367 42.5546 26.9078 42.4057 24ZM37.5478 27.7179C36.8866 28.1314 36.1098 28.1967 35.5155 27.8669C34.7722 27.4215 34.3421 26.429 34.3421 25.0746V20.9114C34.3421 18.9293 33.5654 17.4914 32.2445 17.1114C29.9979 16.4502 28.2955 19.209 27.6678 20.2502L23.7021 26.6114V18.7621C23.6519 16.9609 23.0743 15.9045 21.9678 15.5731C21.2245 15.3588 20.1331 15.4576 19.06 17.0764L10.1878 31.2854C8.99912 29.0388 8.38808 26.5445 8.38808 24C8.38808 15.4257 15.2782 8.45344 23.7036 8.45344C32.1305 8.45344 39.0191 15.4257 39.0191 24V24.0334V24.0669C39.0845 25.7343 38.5722 27.0567 37.5478 27.7179Z" fill="white"/>
</svg>
