<svg width="48" height="48" viewBox="0 0 48 48" fill="none" xmlns="http://www.w3.org/2000/svg">
<path d="M29.594 10.5637C30.0707 12.5589 31.8852 14.0452 34.0519 14.0452C36.5816 14.0452 38.6323 12.0203 38.6323 9.5226C38.6323 7.02489 36.5816 5 34.0519 5C31.8401 5 29.9955 6.54782 29.566 8.60663C25.8618 8.99888 22.9693 12.1009 22.9693 15.8602C22.9693 15.8687 22.9693 15.875 22.9693 15.8835C18.9408 16.051 15.2623 17.1832 12.3418 18.9707C11.2574 18.1416 9.89595 17.6476 8.41855 17.6476C4.87321 17.6476 2 20.4845 2 23.9852C2 26.5253 3.51176 28.7134 5.69566 29.7248C5.90825 37.0822 14.0275 43 24.015 43C34.0025 43 42.1325 37.0759 42.3344 29.7121C44.5011 28.6943 46 26.5126 46 23.9873C46 20.4867 43.1268 17.6497 39.5815 17.6497C38.1105 17.6497 36.7555 18.1395 35.6732 18.9622C32.727 17.162 29.0077 16.0298 24.9384 15.8793C24.9384 15.8729 24.9384 15.8687 24.9384 15.8623C24.9384 13.1695 26.9655 10.9347 29.594 10.5679V10.5637ZM12.0841 28.0074C12.1915 25.709 13.7376 23.9449 15.535 23.9449C17.3324 23.9449 18.7067 25.8086 18.5993 28.107C18.4919 30.4054 17.1498 31.2408 15.3503 31.2408C13.5508 31.2408 11.9768 30.3058 12.0841 28.0074ZM32.4972 23.9449C34.2967 23.9449 35.8429 25.709 35.9481 28.0074C36.0554 30.3058 34.4793 31.2408 32.6819 31.2408C30.8845 31.2408 29.5403 30.4075 29.4329 28.107C29.3255 25.8086 30.6977 23.9449 32.4972 23.9449ZM30.3584 33.3251C30.6956 33.359 30.9103 33.7046 30.7793 34.0142C29.6734 36.6243 27.0622 38.4583 24.015 38.4583C20.9679 38.4583 18.3588 36.6243 17.2508 34.0142C17.1198 33.7046 17.3345 33.359 17.6716 33.3251C19.6472 33.1279 21.7839 33.0198 24.015 33.0198C26.2462 33.0198 28.3807 33.1279 30.3584 33.3251Z" fill="white"/>
</svg>
