<svg width="48" height="48" viewBox="0 0 48 48" fill="none" xmlns="http://www.w3.org/2000/svg">
<path d="M38.4013 9.73552C35.6606 8.46937 32.7217 7.53652 29.6488 7.00224C29.5929 6.99193 29.537 7.0177 29.5081 7.06924C29.1302 7.7461 28.7115 8.62913 28.4183 9.32318C25.1132 8.82499 21.8251 8.82499 18.5878 9.32318C18.2946 8.6137 17.8607 7.7461 17.481 7.06924C17.4522 7.01942 17.3963 6.99365 17.3403 7.00224C14.2692 7.53481 11.3302 8.46766 8.58784 9.73552C8.5641 9.74583 8.54375 9.76302 8.53025 9.78534C2.95566 18.1707 1.42855 26.35 2.1777 34.4278C2.18109 34.4673 2.20312 34.5051 2.23363 34.5292C5.91158 37.2487 9.47431 38.8997 12.9709 39.994C13.0268 40.0112 13.0861 39.9906 13.1217 39.9442C13.9489 38.8069 14.6862 37.6078 15.3183 36.3467C15.3556 36.2729 15.32 36.1853 15.2438 36.1561C14.0743 35.7094 12.9607 35.1648 11.8895 34.5464C11.8048 34.4965 11.798 34.3745 11.8759 34.3161C12.1014 34.146 12.3268 33.9691 12.5421 33.7904C12.581 33.7578 12.6353 33.7509 12.6811 33.7715C19.7183 37.0065 27.3369 37.0065 34.2911 33.7715C34.3369 33.7492 34.3912 33.7561 34.4318 33.7887C34.6471 33.9674 34.8725 34.146 35.0996 34.3161C35.1776 34.3745 35.1725 34.4965 35.0878 34.5464C34.0166 35.1768 32.903 35.7094 31.7318 36.1544C31.6556 36.1836 31.6217 36.2729 31.659 36.3467C32.3047 37.606 33.042 38.8052 33.8539 39.9425C33.8878 39.9906 33.9488 40.0112 34.0047 39.994C37.5182 38.8997 41.0809 37.2487 44.7589 34.5292C44.7911 34.5051 44.8115 34.469 44.8149 34.4295C45.7114 25.0906 43.3131 16.9785 38.4572 9.78705C38.4453 9.76302 38.4251 9.74583 38.4013 9.73552ZM16.3692 29.5093C14.2505 29.5093 12.5048 27.5508 12.5048 25.1456C12.5048 22.7405 14.2167 20.782 16.3692 20.782C18.5386 20.782 20.2675 22.7577 20.2336 25.1456C20.2336 27.5508 18.5217 29.5093 16.3692 29.5093ZM30.6573 29.5093C28.5386 29.5093 26.7929 27.5508 26.7929 25.1456C26.7929 22.7405 28.5047 20.782 30.6573 20.782C32.8268 20.782 34.5555 22.7577 34.5217 25.1456C34.5217 27.5508 32.8268 29.5093 30.6573 29.5093Z" fill="white"/>
</svg>
