<svg width="48" height="48" viewBox="0 0 48 48" fill="none" xmlns="http://www.w3.org/2000/svg">
<path fill-rule="evenodd" clip-rule="evenodd" d="M8.40607 21.0673C17.8013 16.128 24.0662 12.8717 27.2009 11.2984C36.1511 6.80636 38.0108 6.02604 39.223 6.00027C39.4896 5.99461 40.0857 6.07434 40.4719 6.45241C40.7979 6.77165 40.8876 7.2029 40.9306 7.50557C40.9735 7.80824 41.0269 8.49774 40.9844 9.0365C40.4994 15.1857 38.4008 30.1084 37.3331 36.9956C36.8813 39.9099 35.9918 40.887 35.1306 40.9827C33.259 41.1905 31.8379 39.4902 30.0252 38.0564C27.1887 35.8127 25.5862 34.416 22.8329 32.2267C19.6509 29.6965 21.7137 28.3058 23.527 26.0331C24.0016 25.4383 32.2477 16.3877 32.4074 15.5667C32.4273 15.464 32.4458 15.0813 32.2574 14.8791C32.069 14.677 31.7908 14.7461 31.5901 14.8011C31.3056 14.879 26.7743 18.4931 17.996 25.6433C16.7098 26.709 15.5448 27.2283 14.501 27.2011C13.3503 27.1711 11.1367 26.416 9.49121 25.7705C7.4729 24.9789 5.8688 24.5603 6.00848 23.2158C6.08123 22.5155 6.88043 21.7994 8.40607 21.0673Z" fill="white"/>
</svg>
